#!OML:ASF Y:\EmotionMaleHayes\Project 1\Capture day 1\Session 1\Male1.ASF
:FULLY-SPECIFIED
:DEGREES
682
root -4.36369 17.3106 0.124996 509.342 73.9378 512.849
lowerback 2.34196 -1.58526 -6.45789
upperback 4.09562 -2.04841 0.211781
thorax 3.17054 -1.18528 3.82481
lowerneck -23.8263 1.06274 1.61973
upperneck 32.7732 1.8646 -0.785275
head 15.5839 1.10787 -0.17257
rclavicle -6.85807e-015 -1.11319e-014
rhumerus 49.6697 15.6046 -32.5648
rradius 39.7691
rwrist -2.51456
rhand 0.335081 -31.1943
rfingers 7.12502
rthumb 25.9113 -59.4486
lclavicle -6.85807e-015 -1.11319e-014
lhumerus 49.0633 -18.6896 28.1174
lradius 42.8558
lwrist 7.64619
lhand -8.56013 -20.7564
lfingers 7.12502
lthumb 17.3698 8.48747
rfemur 8.32573 -5.84261 5.24834
rtibia 6.9545
rfoot -15.91 -7.26428
rtoes 12.4137
lfemur 20.752 -5.78126 -14.1548
ltibia 16.1109
lfoot -0.688553 2.8072
ltoes 5.42653
683
root -4.30573 17.3095 0.159595 508.901 73.88 512.365
lowerback 2.4717 -1.55204 -6.46072
upperback 4.02313 -2.01608 0.162503
thorax 3.01594 -1.16226 3.7808
lowerneck -23.8328 1.03717 1.7497
upperneck 32.9185 1.75344 -0.707479
head 15.6535 1.094 -0.182665
rclavicle 1.49089e-014 0
rhumerus 49.6129 15.6704 -32.3715
rradius 39.8357
rwrist -2.63601
rhand 0.347229 -31.1018
rfingers 7.12502
rthumb 25.9229 -59.3544
lclavicle 1.49089e-014 0
lhumerus 49.1143 -18.8447 27.8483
lradius 42.8342
lwrist 7.94271
lhand -8.47571 -20.6772
lfingers 7.12502
lthumb 17.4511 8.55942
rfemur 8.36731 -5.94188 5.20708
rtibia 7.16775
rfoot -16.0756 -7.1737
rtoes 12.2715
lfemur 20.7794 -5.82949 -14.2153
ltibia 16.238
lfoot -0.467158 3.11216
ltoes 6.31487
684
root -4.2473 17.3096 0.192585 508.408 73.8925 511.786
lowerback 2.58779 -1.53113 -6.47532
upperback 3.90932 -2.00381 0.156343
thorax 2.83052 -1.14931 3.78819
lowerneck -23.8169 1.01906 1.7661
upperneck 33.0936 1.726 -0.681209
head 15.7332 1.0939 -0.17802
rclavicle -3.47873e-015 6.36111e-015
rhumerus 49.6055 15.7449 -32.3804
rradius 39.8888
rwrist -2.56326
rhand 0.517195 -31.1902
rfingers 7.12502
rthumb 26.0857 -59.4188
lclavicle -3.47873e-015 6.36111e-015
lhumerus 48.9995 -18.978 27.6057
lradius 42.8183
lwrist 8.21996
lhand -8.52844 -20.9736
lfingers 7.12502
lthumb 17.4003 8.26756
rfemur 8.32427 -6.01816 5.19662
rtibia 7.40616
rfoot -16.2342 -7.00884
rtoes 12.2328
lfemur 20.7969 -5.83522 -14.2835
ltibia 16.3532
lfoot -0.196308 3.30933
ltoes 4.95581
685
root -4.18943 17.3096 0.225683 508.497 73.819 511.791
lowerback 2.51624 -1.60685 -6.50906
upperback 3.93307 -2.1016 0.261556
thorax 2.91289 -1.20437 3.91288
lowerneck -23.7729 1.06749 1.74534
upperneck 33.0623 1.84178 -0.773053
head 15.711 1.1251 -0.190868
rclavicle 5.46658e-015 -9.54166e-015
rhumerus 49.9008 15.7211 -32.2116
rradius 39.868
rwrist -2.47267
rhand 0.662419 -31.2817
rfingers 7.12502
rthumb 26.2247 -59.4897
lclavicle 5.46658e-015 -9.54166e-015
lhumerus 48.8697 -18.7713 27.6386
lradius 42.7071
lwrist 8.15601
lhand -8.36381 -21.036
lfingers 7.12502
lthumb 17.5588 8.19106
rfemur 8.47029 -5.88327 5.40495
rtibia 7.31931
rfoot -16.4267 -7.1366
rtoes 12.817
lfemur 20.7361 -5.81996 -14.1449
ltibia 16.4541
lfoot 0.208554 3.29047
ltoes 1.79516
686
root -4.13178 17.3075 0.260497 508.584 73.6842 511.826
lowerback 2.40657 -1.65944 -6.53484
upperback 4.01065 -2.16008 0.296248
thorax 3.06553 -1.24088 3.95782
lowerneck -23.7322 1.08686 1.81999
upperneck 33.0183 1.84751 -0.801579
head 15.682 1.13228 -0.215403
rclavicle -1.97791e-014 7.15625e-015
rhumerus 49.9879 15.5929 -32.0907
rradius 39.9104
rwrist -2.39737
rhand 0.613905 -31.1809
rfingers 7.12502
rthumb 26.1783 -59.3959
lclavicle -1.97791e-014 7.15625e-015
lhumerus 48.9785 -18.5934 27.5185
lradius 42.6202
lwrist 8.01287
lhand -8.22394 -20.7962
lfingers 7.12502
lthumb 17.6934 8.41882
rfemur 8.77363 -5.61307 5.6404
rtibia 7.06639
rfoot -16.6014 -7.45373
rtoes 13.0663
lfemur 20.6593 -5.71071 -13.9216
ltibia 16.5317
lfoot 0.690515 3.25692
ltoes -0.455348
687
root -4.07392 17.305 0.290892 508.739 73.6278 511.99
lowerback 2.44974 -1.66934 -6.37748
upperback 4.01215 -2.17468 0.272172
thorax 3.03576 -1.24197 3.84579
lowerneck -23.6918 1.05879 1.94022
upperneck 33.0789 1.7486 -0.767453
head 15.701 1.11442 -0.241025
rclavicle 2.0773e-014 1.27222e-014
rhumerus 49.8541 15.5076 -32.1589
rradius 40.0153
rwrist -2.42312
rhand 0.633476 -31.1909
rfingers 7.12502
rthumb 26.197 -59.4031
lclavicle 2.0773e-014 1.27222e-014
lhumerus 49.0874 -18.5494 27.3223
lradius 42.5793
lwrist 7.65529
lhand -8.19557 -20.8478
lfingers 7.12502
lthumb 17.7206 8.36472
rfemur 9.10649 -5.81635 5.74633
rtibia 6.90653
rfoot -16.5998 -7.33984
rtoes 12.5577
lfemur 20.6949 -5.66476 -13.6831
ltibia 16.5479
lfoot 1.10203 3.334
ltoes -1.19131
688
root -4.01789 17.3041 0.316641 508.707 73.6207 511.947
lowerback 2.59211 -1.65574 -6.21521
upperback 3.93984 -2.16885 0.241135
thorax 2.87009 -1.22769 3.72867
lowerneck -23.6131 1.01537 2.00784
upperneck 33.1226 1.65695 -0.750675
head 15.7029 1.09054 -0.263755
rclavicle 1.00386e-014 -1.66979e-014
rhumerus 49.6941 15.5485 -32.0987
rradius 40.1468
rwrist -2.67503
rhand 0.609303 -31.251
rfingers 7.12502
rthumb 26.1738 -59.4666
lclavicle 1.00386e-014 -1.66979e-014
lhumerus 49.0848 -18.6165 27.2256
lradius 42.5836
lwrist 7.62924
lhand -8.20129 -21.1301
lfingers 7.12502
lthumb 17.7152 8.08291
rfemur 9.33584 -6.25413 5.68669
rtibia 6.8648
rfoot -16.579 -6.93644
rtoes 12.5514
lfemur 20.7777 -5.69722 -13.5897
ltibia 16.5258
lfoot 1.37109 3.48446
ltoes 0.192044
689
root -3.96351 17.3027 0.343 508.273 73.6291 511.391
lowerback 2.80572 -1.6302 -6.12623
upperback 3.753 -2.15763 0.146279
thorax 2.54538 -1.20594 3.59098
lowerneck -23.506 1.03272 2.13887
upperneck 33.234 1.6499 -0.765959
head 15.7334 1.10786 -0.2935
rclavicle -9.64106e-015 -1.90833e-014
rhumerus 49.4986 15.6916 -32.1181
rradius 40.2325
rwrist -2.84487
rhand 0.5087 -31.1842
rfingers 7.12502
rthumb 26.0775 -59.414
lclavicle -9.64106e-015 -1.90833e-014
lhumerus 49.0331 -18.8376 27.0969
lradius 42.651
lwrist 8.10426
lhand -8.13576 -21.1002
lfingers 7.12502
lthumb 17.7782 8.10708
rfemur 9.28016 -6.13232 5.74067
rtibia 7.04903
rfoot -16.7727 -6.93586
rtoes 13.0602
lfemur 20.7583 -5.73983 -13.6852
ltibia 16.6039
lfoot 1.44941 3.75908
ltoes 2.77214
690
root -3.91009 17.3019 0.369513 508.37 73.6223 511.323
lowerback 2.4882 -1.71867 -5.9944
upperback 3.88656 -2.24613 0.137289
thorax 2.86607 -1.25772 3.49429
lowerneck -23.5907 1.12745 2.16356
upperneck 33.191 1.75204 -0.71805
head 15.7341 1.15699 -0.257069
rclavicle 3.66758e-014 7.95139e-015
rhumerus 49.8038 15.4765 -32.1684
rradius 40.2396
rwrist -2.75894
rhand 0.449748 -31.2687
rfingers 7.12502
rthumb 26.0211 -59.5068
lclavicle 3.66758e-014 7.95139e-015
lhumerus 49.0578 -18.514 27.0048
lradius 42.6352
lwrist 8.32228
lhand -8.17806 -20.7962
lfingers 7.12502
lthumb 17.7375 8.41486
rfemur 9.18259 -5.93262 6.00912
rtibia 7.2567
rfoot -17.0827 -7.0721
rtoes 13.2035
lfemur 20.6182 -5.91355 -13.6938
ltibia 16.8287
lfoot 1.57971 4.02892
ltoes 3.75181
691
root -3.85743 17.3029 0.394613 508.782 73.5971 511.646
lowerback 2.53239 -1.79464 -5.73348
upperback 3.80404 -2.35497 0.16294
thorax 2.75467 -1.3017 3.37709
lowerneck -23.5398 1.12104 2.08234
upperneck 33.3173 1.76243 -0.641487
head 15.7815 1.16668 -0.207063
rclavicle -1.30204e-014 -2.14687e-014
rhumerus 49.8244 15.5533 -32.1103
rradius 40.29
rwrist -2.68248
rhand 0.435655 -31.3222
rfingers 7.12502
rthumb 26.0076 -59.5624
lclavicle -1.30204e-014 -2.14687e-014
lhumerus 48.893 -18.5479 26.8864
lradius 42.6528
lwrist 8.39216
lhand -8.8417 -20.895
lfingers 7.12502
lthumb 17.0988 8.37254
rfemur 9.29494 -5.98084 6.24971
rtibia 7.24323
rfoot -17.2851 -7.05873
rtoes 13.1727
lfemur 20.472 -6.1303 -13.6041
ltibia 17.1041
lfoot 1.83463 4.2306
ltoes 3.50679
692
root -3.80236 17.3032 0.418354 508.597 73.5973 511.42
lowerback 2.32558 -1.81184 -5.99523
upperback 3.95824 -2.36418 0.426091
thorax 3.05854 -1.3294 3.78594
lowerneck -23.5812 1.11329 1.92715
upperneck 33.1816 1.88953 -0.87084
head 15.7288 1.15978 -0.254155
rclavicle 2.98177e-015 -6.36111e-015
rhumerus 50.1459 15.4237 -31.5256
rradius 40.3374
rwrist -2.80923
rhand 0.540505 -31.2376
rfingers 7.12502
rthumb 26.108 -59.4629
lclavicle 2.98177e-015 -6.36111e-015
lhumerus 48.8117 -18.1872 27.3949
lradius 42.49
lwrist 8.35027
lhand -9.51172 -21.4576
lfingers 7.12502
lthumb 16.4538 7.86461
rfemur 9.46756 -6.15213 6.25197
rtibia 7.21323
rfoot -17.3329 -6.81307
rtoes 13.2416
lfemur 20.4551 -6.20992 -13.6153
ltibia 17.2495
lfoot 2.10854 4.44371
ltoes 3.74509
693
root -3.74555 17.3019 0.443272 508.329 73.6501 511.09
lowerback 2.3263 -1.79814 -5.88742
upperback 3.9269 -2.34593 0.360094
thorax 3.01475 -1.31428 3.65797
lowerneck -23.5309 1.15023 2.01965
upperneck 33.2134 1.89006 -0.816064
head 15.7331 1.18203 -0.246472
rclavicle -1.10325e-014 8.74653e-015
rhumerus 50.101 15.361 -31.7257
rradius 40.2453
rwrist -2.82021
rhand 0.599399 -31.1062
rfingers 7.12502
rthumb 26.1644 -59.3232
lclavicle -1.10325e-014 8.74653e-015
lhumerus 48.7672 -18.0999 27.5623
lradius 42.4263
lwrist 8.22153
lhand -9.27655 -21.4398
lfingers 7.12502
lthumb 16.6802 7.86355
rfemur 9.6274 -6.23867 6.29874
rtibia 7.13655
rfoot -17.3681 -6.60427
rtoes 13.2294
lfemur 20.4658 -6.12199 -13.5203
ltibia 17.3312
lfoot 2.57636 4.58213
ltoes 4.57068
694
root -3.6929 17.3012 0.469684 508.507 73.7512 511.186
lowerback 2.31664 -1.78545 -5.62565
upperback 3.90445 -2.32791 0.310569
thorax 2.97929 -1.29566 3.46042
lowerneck -23.652 1.14134 2.13893
upperneck 33.4139 1.82556 -0.788348
head 15.8579 1.17841 -0.26583
rclavicle 2.75317e-014 -7.15625e-015
rhumerus 50.0081 15.2057 -32.0104
rradius 40.1859
rwrist -2.75394
rhand 0.534885 -31.0468
rfingers 7.12502
rthumb 26.1026 -59.273
lclavicle 2.75317e-014 -7.15625e-015
lhumerus 48.7878 -18.0229 27.5974
lradius 42.4052
lwrist 8.09925
lhand -8.73646 -20.9413
lfingers 7.12502
lthumb 17.2001 8.31743
rfemur 9.70671 -6.0739 6.60996
rtibia 7.08253
rfoot -17.5582 -6.6114
rtoes 13.4443
lfemur 20.3883 -6.06765 -13.258
ltibia 17.4946
lfoot 3.005 4.73217
ltoes 5.37481
